<?xml version="1.0" standalone="no"?>
<!DOCTYPE svg PUBLIC "-//W3C//DTD SVG 20010904//EN"
 "http://www.w3.org/TR/2001/REC-SVG-20010904/DTD/svg10.dtd">
<svg version="1.0" xmlns="http://www.w3.org/2000/svg"
 width="848.000000pt" height="848.000000pt" viewBox="0 0 848.000000 848.000000"
 preserveAspectRatio="xMidYMid meet">
<metadata>
Created by potrace 1.14, written by Peter Selinger 2001-2017
</metadata>
<g transform="translate(0.000000,848.000000) scale(0.100000,-0.100000)"
fill="#000000" stroke="none">
<path d="M700 4240 l0 -4240 913 0 913 0 47 81 c26 44 47 84 47 90 0 5 4 9 8
9 4 0 14 16 21 35 7 19 17 35 22 35 5 0 9 8 9 17 0 9 6 24 14 32 7 9 30 48 51
86 20 39 42 79 48 90 7 10 21 35 33 55 12 19 43 76 69 125 27 50 51 92 54 95
4 3 12 16 18 30 7 14 33 61 58 105 25 44 48 88 52 97 3 10 9 18 14 18 5 0 9 9
9 20 0 11 4 20 9 20 5 0 14 12 20 28 12 28 17 37 84 152 22 36 45 79 53 95 7
17 18 37 24 45 14 21 64 110 106 187 20 37 65 117 100 178 35 62 64 117 64
124 0 6 3 11 8 11 4 0 16 19 27 43 11 23 22 44 26 47 6 5 70 119 111 198 12
23 24 42 27 42 8 -1 185 -280 189 -297 2 -7 7 -13 10 -13 4 0 18 -20 32 -45
14 -25 28 -45 32 -45 5 0 8 -4 8 -9 0 -6 34 -63 76 -128 42 -65 88 -136 102
-158 14 -22 38 -59 54 -82 15 -23 28 -46 28 -52 0 -6 4 -11 9 -11 5 0 13 -9
16 -20 3 -11 12 -26 18 -33 7 -7 17 -22 23 -32 6 -11 62 -99 124 -195 62 -96
162 -254 223 -350 61 -96 114 -177 117 -180 3 -3 10 -13 15 -22 6 -10 64 -102
130 -205 66 -102 129 -201 140 -218 11 -18 29 -47 40 -64 l19 -31 1308 0 1307
0 -17 30 c-9 16 -20 30 -24 30 -5 0 -8 4 -8 9 0 5 -85 137 -190 295 -104 157
-190 289 -190 292 0 2 -8 14 -18 25 -11 10 -25 32 -33 47 -7 15 -26 43 -41 62
-16 19 -28 39 -28 43 0 5 -13 26 -30 47 -16 21 -30 43 -30 49 0 6 -3 11 -8 11
-4 0 -18 20 -32 45 -14 25 -28 45 -31 45 -4 0 -9 8 -13 17 -6 19 -27 54 -37
63 -3 3 -61 90 -130 195 -97 148 -281 427 -399 605 -5 8 -41 62 -79 120 -163
249 -432 656 -441 670 -6 8 -19 29 -30 45 -11 17 -25 38 -32 49 -7 10 -34 51
-60 90 l-47 71 142 71 c150 75 184 93 232 124 17 11 37 23 45 27 8 3 17 9 20
13 3 3 23 17 45 30 22 13 45 28 50 32 6 4 42 32 81 61 119 88 173 136 309 273
72 72 135 138 140 145 6 8 34 43 62 79 142 182 259 390 358 635 5 11 9 22 9
25 1 3 11 32 23 65 31 86 59 180 78 260 19 79 21 92 39 195 20 115 26 161 31
235 2 33 5 60 5 60 4 0 9 156 9 300 1 190 -6 318 -23 453 -4 23 -8 59 -11 80
-11 92 -48 263 -89 413 -28 103 -98 282 -158 404 -61 124 -65 132 -110 202
-16 23 -28 46 -28 51 0 6 -3 12 -7 14 -5 2 -25 28 -45 58 -21 30 -48 67 -60
82 -13 15 -34 42 -48 60 -52 68 -201 221 -300 308 -34 30 -67 60 -74 65 -6 6
-49 38 -96 73 -47 34 -90 66 -97 72 -7 5 -17 10 -23 10 -5 0 -10 5 -10 10 0 6
-5 10 -11 10 -6 0 -23 8 -37 19 -73 51 -323 176 -452 225 -52 20 -104 41 -115
46 -21 9 -123 43 -140 46 -5 1 -41 11 -80 22 -38 11 -83 23 -100 28 -16 4 -34
8 -40 10 -5 2 -23 6 -40 9 -16 3 -47 10 -68 16 -21 6 -53 12 -70 15 -32 5 -48
8 -97 18 -14 2 -61 10 -105 16 -44 6 -93 14 -110 16 -16 3 -50 7 -75 9 -45 3
-140 13 -235 23 -27 2 -906 7 -1952 9 l-1903 4 0 -4241z"/>
</g>
</svg>
